<svg xmlns="http://www.w3.org/2000/svg" xmlns:xlink="http://www.w3.org/1999/xlink" width="1080" zoomAndPan="magnify" viewBox="0 0 810 809.999993" height="1080" preserveAspectRatio="xMidYMid meet" version="1.0"><defs><clipPath id="6f000f64c8"><path d="M 0 0 L 808 0 L 808 808 L 0 808 Z M 0 0 " clip-rule="nonzero"/></clipPath><clipPath id="ae63c17d5d"><path d="M 807.851562 403.925781 C 807.851562 410.535156 807.691406 417.144531 807.367188 423.746094 C 807.042969 430.347656 806.554688 436.9375 805.90625 443.519531 C 805.261719 450.097656 804.449219 456.65625 803.480469 463.195312 C 802.511719 469.734375 801.382812 476.246094 800.089844 482.730469 C 798.800781 489.210938 797.355469 495.660156 795.746094 502.074219 C 794.140625 508.484375 792.378906 514.855469 790.460938 521.179688 C 788.539062 527.507812 786.46875 533.78125 784.242188 540.003906 C 782.015625 546.230469 779.636719 552.394531 777.105469 558.503906 C 774.574219 564.609375 771.898438 570.652344 769.070312 576.628906 C 766.246094 582.601562 763.273438 588.507812 760.15625 594.335938 C 757.042969 600.164062 753.785156 605.914062 750.386719 611.585938 C 746.988281 617.257812 743.453125 622.839844 739.777344 628.335938 C 736.105469 633.832031 732.300781 639.234375 728.363281 644.542969 C 724.425781 649.855469 720.359375 655.066406 716.164062 660.175781 C 711.972656 665.285156 707.65625 670.289062 703.214844 675.1875 C 698.777344 680.085938 694.21875 684.871094 689.546875 689.546875 C 684.871094 694.21875 680.085938 698.777344 675.1875 703.214844 C 670.289062 707.65625 665.285156 711.972656 660.175781 716.164062 C 655.066406 720.359375 649.855469 724.425781 644.546875 728.363281 C 639.234375 732.300781 633.832031 736.105469 628.335938 739.777344 C 622.839844 743.453125 617.257812 746.988281 611.585938 750.386719 C 605.914062 753.785156 600.164062 757.042969 594.335938 760.15625 C 588.507812 763.273438 582.601562 766.246094 576.628906 769.070312 C 570.652344 771.898438 564.609375 774.574219 558.503906 777.105469 C 552.394531 779.636719 546.230469 782.015625 540.003906 784.242188 C 533.78125 786.46875 527.507812 788.539062 521.179688 790.460938 C 514.855469 792.378906 508.484375 794.140625 502.074219 795.746094 C 495.660156 797.355469 489.210938 798.800781 482.730469 800.089844 C 476.246094 801.382812 469.734375 802.511719 463.195312 803.480469 C 456.65625 804.449219 450.097656 805.261719 443.519531 805.90625 C 436.9375 806.554688 430.347656 807.042969 423.746094 807.367188 C 417.144531 807.691406 410.535156 807.851562 403.925781 807.851562 C 397.316406 807.851562 390.710938 807.691406 384.105469 807.367188 C 377.503906 807.042969 370.914062 806.554688 364.335938 805.90625 C 357.757812 805.261719 351.195312 804.449219 344.65625 803.480469 C 338.117188 802.511719 331.609375 801.382812 325.125 800.089844 C 318.640625 798.800781 312.191406 797.355469 305.78125 795.746094 C 299.367188 794.140625 293 792.378906 286.671875 790.460938 C 280.347656 788.539062 274.070312 786.46875 267.847656 784.242188 C 261.625 782.015625 255.457031 779.636719 249.351562 777.105469 C 243.242188 774.574219 237.203125 771.898438 231.226562 769.070312 C 225.25 766.246094 219.347656 763.273438 213.515625 760.15625 C 207.6875 757.042969 201.9375 753.785156 196.265625 750.386719 C 190.597656 746.988281 185.011719 743.453125 179.515625 739.777344 C 174.019531 736.105469 168.617188 732.300781 163.308594 728.363281 C 158 724.425781 152.789062 720.359375 147.679688 716.164062 C 142.566406 711.972656 137.5625 707.65625 132.664062 703.214844 C 127.769531 698.777344 122.980469 694.21875 118.308594 689.546875 C 113.632812 684.871094 109.074219 680.085938 104.636719 675.1875 C 100.199219 670.289062 95.878906 665.285156 91.6875 660.175781 C 87.492188 655.066406 83.425781 649.855469 79.488281 644.546875 C 75.550781 639.234375 71.746094 633.832031 68.074219 628.335938 C 64.402344 622.839844 60.867188 617.257812 57.46875 611.585938 C 54.070312 605.914062 50.8125 600.164062 47.695312 594.335938 C 44.578125 588.507812 41.609375 582.601562 38.78125 576.628906 C 35.953125 570.652344 33.277344 564.609375 30.746094 558.503906 C 28.21875 552.394531 25.839844 546.230469 23.613281 540.003906 C 21.386719 533.78125 19.3125 527.507812 17.394531 521.179688 C 15.472656 514.855469 13.710938 508.484375 12.105469 502.074219 C 10.5 495.660156 9.050781 489.210938 7.761719 482.730469 C 6.472656 476.246094 5.34375 469.734375 4.371094 463.195312 C 3.402344 456.65625 2.59375 450.097656 1.945312 443.519531 C 1.296875 436.9375 0.8125 430.347656 0.488281 423.746094 C 0.164062 417.144531 0 410.535156 0 403.925781 C 0 397.316406 0.164062 390.710938 0.488281 384.105469 C 0.8125 377.503906 1.296875 370.914062 1.945312 364.335938 C 2.59375 357.757812 3.402344 351.195312 4.371094 344.65625 C 5.34375 338.117188 6.472656 331.609375 7.761719 325.125 C 9.050781 318.640625 10.5 312.191406 12.105469 305.78125 C 13.710938 299.367188 15.472656 293 17.394531 286.671875 C 19.3125 280.347656 21.386719 274.070312 23.613281 267.847656 C 25.839844 261.625 28.21875 255.457031 30.746094 249.351562 C 33.277344 243.242188 35.953125 237.203125 38.78125 231.226562 C 41.609375 225.25 44.578125 219.347656 47.695312 213.515625 C 50.8125 207.6875 54.070312 201.9375 57.46875 196.265625 C 60.867188 190.597656 64.402344 185.011719 68.074219 179.515625 C 71.746094 174.019531 75.550781 168.617188 79.488281 163.308594 C 83.425781 158 87.492188 152.789062 91.6875 147.679688 C 95.878906 142.566406 100.199219 137.5625 104.636719 132.664062 C 109.074219 127.769531 113.632812 122.980469 118.308594 118.308594 C 122.980469 113.632812 127.769531 109.074219 132.664062 104.636719 C 137.5625 100.199219 142.566406 95.878906 147.679688 91.6875 C 152.789062 87.492188 158 83.425781 163.308594 79.488281 C 168.617188 75.550781 174.019531 71.746094 179.515625 68.074219 C 185.011719 64.402344 190.597656 60.867188 196.265625 57.46875 C 201.9375 54.070312 207.6875 50.8125 213.515625 47.695312 C 219.347656 44.578125 225.25 41.609375 231.226562 38.78125 C 237.203125 35.953125 243.242188 33.277344 249.351562 30.746094 C 255.457031 28.21875 261.625 25.839844 267.847656 23.613281 C 274.070312 21.386719 280.347656 19.3125 286.671875 17.394531 C 293 15.472656 299.367188 13.710938 305.78125 12.105469 C 312.191406 10.5 318.640625 9.050781 325.125 7.761719 C 331.609375 6.472656 338.117188 5.34375 344.65625 4.371094 C 351.195312 3.402344 357.757812 2.59375 364.335938 1.945312 C 370.914062 1.296875 377.503906 0.8125 384.105469 0.488281 C 390.710938 0.164062 397.316406 0 403.925781 0 C 410.535156 0 417.144531 0.164062 423.746094 0.488281 C 430.347656 0.8125 436.9375 1.296875 443.519531 1.945312 C 450.097656 2.59375 456.65625 3.402344 463.195312 4.371094 C 469.734375 5.34375 476.246094 6.472656 482.730469 7.761719 C 489.210938 9.050781 495.660156 10.5 502.074219 12.105469 C 508.484375 13.710938 514.855469 15.472656 521.179688 17.394531 C 527.507812 19.3125 533.78125 21.386719 540.003906 23.613281 C 546.230469 25.839844 552.394531 28.21875 558.503906 30.746094 C 564.609375 33.277344 570.652344 35.953125 576.628906 38.78125 C 582.601562 41.609375 588.507812 44.578125 594.335938 47.695312 C 600.164062 50.8125 605.914062 54.070312 611.585938 57.46875 C 617.257812 60.867188 622.839844 64.402344 628.335938 68.074219 C 633.832031 71.746094 639.234375 75.550781 644.542969 79.488281 C 649.855469 83.425781 655.066406 87.492188 660.175781 91.6875 C 665.285156 95.878906 670.289062 100.199219 675.1875 104.636719 C 680.085938 109.074219 684.871094 113.632812 689.546875 118.308594 C 694.21875 122.980469 698.777344 127.769531 703.214844 132.664062 C 707.65625 137.5625 711.972656 142.566406 716.164062 147.679688 C 720.359375 152.789062 724.425781 158 728.363281 163.308594 C 732.300781 168.617188 736.105469 174.019531 739.777344 179.515625 C 743.453125 185.011719 746.988281 190.597656 750.386719 196.265625 C 753.785156 201.9375 757.042969 207.6875 760.15625 213.515625 C 763.273438 219.347656 766.246094 225.25 769.070312 231.226562 C 771.898438 237.203125 774.574219 243.242188 777.105469 249.351562 C 779.636719 255.457031 782.015625 261.625 784.242188 267.847656 C 786.46875 274.070312 788.539062 280.347656 790.460938 286.671875 C 792.378906 293 794.140625 299.367188 795.746094 305.78125 C 797.355469 312.191406 798.800781 318.640625 800.089844 325.125 C 801.382812 331.609375 802.511719 338.117188 803.480469 344.65625 C 804.449219 351.195312 805.261719 357.757812 805.90625 364.335938 C 806.554688 370.914062 807.042969 377.503906 807.367188 384.105469 C 807.691406 390.710938 807.851562 397.316406 807.851562 403.925781 Z M 807.851562 403.925781 " clip-rule="nonzero"/></clipPath><linearGradient x1="62.833" gradientTransform="matrix(6.428571, 0, 0, 6.428571, 0.0000035, 0.00002)" y1="0" x2="62.833" gradientUnits="userSpaceOnUse" y2="125.665993" id="9d5d555ec4"><stop stop-opacity="1" stop-color="rgb(26.298523%, 83.099365%, 48.199463%)" offset="0"/><stop stop-opacity="1" stop-color="rgb(26.541138%, 83.125305%, 48.373413%)" offset="0.00390625"/><stop stop-opacity="1" stop-color="rgb(26.785278%, 83.151245%, 48.548889%)" offset="0.0078125"/><stop stop-opacity="1" stop-color="rgb(27.027893%, 83.177185%, 48.722839%)" offset="0.0117188"/><stop stop-opacity="1" stop-color="rgb(27.272034%, 83.204651%, 48.898315%)" offset="0.015625"/><stop stop-opacity="1" stop-color="rgb(27.514648%, 83.230591%, 49.072266%)" offset="0.0195312"/><stop stop-opacity="1" stop-color="rgb(27.758789%, 83.256531%, 49.246216%)" offset="0.0234375"/><stop stop-opacity="1" stop-color="rgb(28.001404%, 83.282471%, 49.420166%)" offset="0.0273438"/><stop stop-opacity="1" stop-color="rgb(28.245544%, 83.308411%, 49.595642%)" offset="0.03125"/><stop stop-opacity="1" stop-color="rgb(28.488159%, 83.334351%, 49.769592%)" offset="0.0351562"/><stop stop-opacity="1" stop-color="rgb(28.7323%, 83.360291%, 49.945068%)" offset="0.0390625"/><stop stop-opacity="1" stop-color="rgb(28.974915%, 83.38623%, 50.119019%)" offset="0.0429688"/><stop stop-opacity="1" stop-color="rgb(29.219055%, 83.413696%, 50.294495%)" offset="0.046875"/><stop stop-opacity="1" stop-color="rgb(29.46167%, 83.439636%, 50.468445%)" offset="0.0507812"/><stop stop-opacity="1" stop-color="rgb(29.705811%, 83.465576%, 50.643921%)" offset="0.0546875"/><stop stop-opacity="1" stop-color="rgb(29.948425%, 83.491516%, 50.817871%)" offset="0.0585938"/><stop stop-opacity="1" stop-color="rgb(30.192566%, 83.517456%, 50.993347%)" offset="0.0625"/><stop stop-opacity="1" stop-color="rgb(30.435181%, 83.543396%, 51.167297%)" offset="0.0664062"/><stop stop-opacity="1" stop-color="rgb(30.679321%, 83.570862%, 51.342773%)" offset="0.0703125"/><stop stop-opacity="1" stop-color="rgb(30.921936%, 83.596802%, 51.516724%)" offset="0.0742188"/><stop stop-opacity="1" stop-color="rgb(31.166077%, 83.622742%, 51.6922%)" offset="0.078125"/><stop stop-opacity="1" stop-color="rgb(31.408691%, 83.648682%, 51.86615%)" offset="0.0820312"/><stop stop-opacity="1" stop-color="rgb(31.652832%, 83.674622%, 52.0401%)" offset="0.0859375"/><stop stop-opacity="1" stop-color="rgb(31.895447%, 83.700562%, 52.21405%)" offset="0.0898438"/><stop stop-opacity="1" stop-color="rgb(32.139587%, 83.728027%, 52.389526%)" offset="0.09375"/><stop stop-opacity="1" stop-color="rgb(32.382202%, 83.753967%, 52.563477%)" offset="0.0976562"/><stop stop-opacity="1" stop-color="rgb(32.626343%, 83.779907%, 52.738953%)" offset="0.101562"/><stop stop-opacity="1" stop-color="rgb(32.868958%, 83.805847%, 52.912903%)" offset="0.105469"/><stop stop-opacity="1" stop-color="rgb(33.113098%, 83.831787%, 53.088379%)" offset="0.109375"/><stop stop-opacity="1" stop-color="rgb(33.355713%, 83.857727%, 53.262329%)" offset="0.113281"/><stop stop-opacity="1" stop-color="rgb(33.599854%, 83.883667%, 53.437805%)" offset="0.117188"/><stop stop-opacity="1" stop-color="rgb(33.842468%, 83.909607%, 53.611755%)" offset="0.121094"/><stop stop-opacity="1" stop-color="rgb(34.086609%, 83.937073%, 53.787231%)" offset="0.125"/><stop stop-opacity="1" stop-color="rgb(34.329224%, 83.963013%, 53.961182%)" offset="0.128906"/><stop stop-opacity="1" stop-color="rgb(34.573364%, 83.988953%, 54.136658%)" offset="0.132812"/><stop stop-opacity="1" stop-color="rgb(34.815979%, 84.014893%, 54.310608%)" offset="0.136719"/><stop stop-opacity="1" stop-color="rgb(35.06012%, 84.040833%, 54.484558%)" offset="0.140625"/><stop stop-opacity="1" stop-color="rgb(35.302734%, 84.066772%, 54.658508%)" offset="0.144531"/><stop stop-opacity="1" stop-color="rgb(35.546875%, 84.094238%, 54.833984%)" offset="0.148438"/><stop stop-opacity="1" stop-color="rgb(35.78949%, 84.120178%, 55.007935%)" offset="0.152344"/><stop stop-opacity="1" stop-color="rgb(36.03363%, 84.146118%, 55.183411%)" offset="0.15625"/><stop stop-opacity="1" stop-color="rgb(36.276245%, 84.172058%, 55.357361%)" offset="0.160156"/><stop stop-opacity="1" stop-color="rgb(36.520386%, 84.197998%, 55.532837%)" offset="0.164062"/><stop stop-opacity="1" stop-color="rgb(36.763%, 84.223938%, 55.706787%)" offset="0.167969"/><stop stop-opacity="1" stop-color="rgb(37.007141%, 84.251404%, 55.882263%)" offset="0.171875"/><stop stop-opacity="1" stop-color="rgb(37.249756%, 84.277344%, 56.056213%)" offset="0.175781"/><stop stop-opacity="1" stop-color="rgb(37.493896%, 84.303284%, 56.231689%)" offset="0.179688"/><stop stop-opacity="1" stop-color="rgb(37.736511%, 84.329224%, 56.40564%)" offset="0.183594"/><stop stop-opacity="1" stop-color="rgb(37.980652%, 84.355164%, 56.581116%)" offset="0.1875"/><stop stop-opacity="1" stop-color="rgb(38.223267%, 84.381104%, 56.755066%)" offset="0.191406"/><stop stop-opacity="1" stop-color="rgb(38.467407%, 84.408569%, 56.929016%)" offset="0.195312"/><stop stop-opacity="1" stop-color="rgb(38.710022%, 84.434509%, 57.102966%)" offset="0.199219"/><stop stop-opacity="1" stop-color="rgb(38.954163%, 84.460449%, 57.278442%)" offset="0.203125"/><stop stop-opacity="1" stop-color="rgb(39.196777%, 84.486389%, 57.452393%)" offset="0.207031"/><stop stop-opacity="1" stop-color="rgb(39.440918%, 84.512329%, 57.627869%)" offset="0.210938"/><stop stop-opacity="1" stop-color="rgb(39.683533%, 84.538269%, 57.801819%)" offset="0.214844"/><stop stop-opacity="1" stop-color="rgb(39.927673%, 84.564209%, 57.977295%)" offset="0.21875"/><stop stop-opacity="1" stop-color="rgb(40.170288%, 84.590149%, 58.151245%)" offset="0.222656"/><stop stop-opacity="1" stop-color="rgb(40.414429%, 84.617615%, 58.326721%)" offset="0.226562"/><stop stop-opacity="1" stop-color="rgb(40.657043%, 84.643555%, 58.500671%)" offset="0.230469"/><stop stop-opacity="1" stop-color="rgb(40.901184%, 84.669495%, 58.676147%)" offset="0.234375"/><stop stop-opacity="1" stop-color="rgb(41.143799%, 84.695435%, 58.850098%)" offset="0.238281"/><stop stop-opacity="1" stop-color="rgb(41.387939%, 84.721375%, 59.025574%)" offset="0.242188"/><stop stop-opacity="1" stop-color="rgb(41.630554%, 84.747314%, 59.199524%)" offset="0.246094"/><stop stop-opacity="1" stop-color="rgb(41.874695%, 84.77478%, 59.375%)" offset="0.25"/><stop stop-opacity="1" stop-color="rgb(42.11731%, 84.80072%, 59.54895%)" offset="0.253906"/><stop stop-opacity="1" stop-color="rgb(42.36145%, 84.82666%, 59.7229%)" offset="0.257812"/><stop stop-opacity="1" stop-color="rgb(42.604065%, 84.8526%, 59.896851%)" offset="0.261719"/><stop stop-opacity="1" stop-color="rgb(42.848206%, 84.87854%, 60.072327%)" offset="0.265625"/><stop stop-opacity="1" stop-color="rgb(43.09082%, 84.90448%, 60.246277%)" offset="0.269531"/><stop stop-opacity="1" stop-color="rgb(43.334961%, 84.931946%, 60.421753%)" offset="0.273438"/><stop stop-opacity="1" stop-color="rgb(43.577576%, 84.957886%, 60.595703%)" offset="0.277344"/><stop stop-opacity="1" stop-color="rgb(43.821716%, 84.983826%, 60.771179%)" offset="0.28125"/><stop stop-opacity="1" stop-color="rgb(44.064331%, 85.009766%, 60.945129%)" offset="0.285156"/><stop stop-opacity="1" stop-color="rgb(44.308472%, 85.035706%, 61.120605%)" offset="0.289062"/><stop stop-opacity="1" stop-color="rgb(44.551086%, 85.061646%, 61.294556%)" offset="0.292969"/><stop stop-opacity="1" stop-color="rgb(44.795227%, 85.087585%, 61.470032%)" offset="0.296875"/><stop stop-opacity="1" stop-color="rgb(45.037842%, 85.113525%, 61.643982%)" offset="0.300781"/><stop stop-opacity="1" stop-color="rgb(45.281982%, 85.140991%, 61.819458%)" offset="0.304688"/><stop stop-opacity="1" stop-color="rgb(45.524597%, 85.166931%, 61.993408%)" offset="0.308594"/><stop stop-opacity="1" stop-color="rgb(45.768738%, 85.192871%, 62.167358%)" offset="0.3125"/><stop stop-opacity="1" stop-color="rgb(46.011353%, 85.218811%, 62.341309%)" offset="0.316406"/><stop stop-opacity="1" stop-color="rgb(46.255493%, 85.244751%, 62.516785%)" offset="0.320312"/><stop stop-opacity="1" stop-color="rgb(46.498108%, 85.270691%, 62.690735%)" offset="0.324219"/><stop stop-opacity="1" stop-color="rgb(46.742249%, 85.298157%, 62.866211%)" offset="0.328125"/><stop stop-opacity="1" stop-color="rgb(46.984863%, 85.324097%, 63.040161%)" offset="0.332031"/><stop stop-opacity="1" stop-color="rgb(47.229004%, 85.350037%, 63.215637%)" offset="0.335938"/><stop stop-opacity="1" stop-color="rgb(47.471619%, 85.375977%, 63.389587%)" offset="0.339844"/><stop stop-opacity="1" stop-color="rgb(47.715759%, 85.401917%, 63.565063%)" offset="0.34375"/><stop stop-opacity="1" stop-color="rgb(47.958374%, 85.427856%, 63.739014%)" offset="0.347656"/><stop stop-opacity="1" stop-color="rgb(48.202515%, 85.455322%, 63.91449%)" offset="0.351562"/><stop stop-opacity="1" stop-color="rgb(48.445129%, 85.481262%, 64.08844%)" offset="0.355469"/><stop stop-opacity="1" stop-color="rgb(48.687744%, 85.507202%, 64.263916%)" offset="0.359375"/><stop stop-opacity="1" stop-color="rgb(48.930359%, 85.533142%, 64.437866%)" offset="0.363281"/><stop stop-opacity="1" stop-color="rgb(49.1745%, 85.559082%, 64.613342%)" offset="0.367188"/><stop stop-opacity="1" stop-color="rgb(49.417114%, 85.585022%, 64.787292%)" offset="0.371094"/><stop stop-opacity="1" stop-color="rgb(49.661255%, 85.612488%, 64.961243%)" offset="0.375"/><stop stop-opacity="1" stop-color="rgb(49.90387%, 85.638428%, 65.135193%)" offset="0.378906"/><stop stop-opacity="1" stop-color="rgb(50.14801%, 85.664368%, 65.310669%)" offset="0.382812"/><stop stop-opacity="1" stop-color="rgb(50.390625%, 85.690308%, 65.484619%)" offset="0.386719"/><stop stop-opacity="1" stop-color="rgb(50.634766%, 85.716248%, 65.660095%)" offset="0.390625"/><stop stop-opacity="1" stop-color="rgb(50.87738%, 85.742188%, 65.834045%)" offset="0.394531"/><stop stop-opacity="1" stop-color="rgb(51.121521%, 85.768127%, 66.009521%)" offset="0.398438"/><stop stop-opacity="1" stop-color="rgb(51.364136%, 85.794067%, 66.183472%)" offset="0.402344"/><stop stop-opacity="1" stop-color="rgb(51.608276%, 85.821533%, 66.358948%)" offset="0.40625"/><stop stop-opacity="1" stop-color="rgb(51.850891%, 85.847473%, 66.532898%)" offset="0.410156"/><stop stop-opacity="1" stop-color="rgb(52.095032%, 85.873413%, 66.708374%)" offset="0.414062"/><stop stop-opacity="1" stop-color="rgb(52.337646%, 85.899353%, 66.882324%)" offset="0.417969"/><stop stop-opacity="1" stop-color="rgb(52.581787%, 85.925293%, 67.0578%)" offset="0.421875"/><stop stop-opacity="1" stop-color="rgb(52.824402%, 85.951233%, 67.23175%)" offset="0.425781"/><stop stop-opacity="1" stop-color="rgb(53.068542%, 85.978699%, 67.405701%)" offset="0.429688"/><stop stop-opacity="1" stop-color="rgb(53.311157%, 86.004639%, 67.579651%)" offset="0.433594"/><stop stop-opacity="1" stop-color="rgb(53.555298%, 86.030579%, 67.755127%)" offset="0.4375"/><stop stop-opacity="1" stop-color="rgb(53.797913%, 86.056519%, 67.929077%)" offset="0.441406"/><stop stop-opacity="1" stop-color="rgb(54.042053%, 86.082458%, 68.104553%)" offset="0.445312"/><stop stop-opacity="1" stop-color="rgb(54.284668%, 86.108398%, 68.278503%)" offset="0.449219"/><stop stop-opacity="1" stop-color="rgb(54.528809%, 86.135864%, 68.453979%)" offset="0.453125"/><stop stop-opacity="1" stop-color="rgb(54.771423%, 86.161804%, 68.62793%)" offset="0.457031"/><stop stop-opacity="1" stop-color="rgb(55.015564%, 86.187744%, 68.803406%)" offset="0.460938"/><stop stop-opacity="1" stop-color="rgb(55.258179%, 86.213684%, 68.977356%)" offset="0.464844"/><stop stop-opacity="1" stop-color="rgb(55.502319%, 86.239624%, 69.152832%)" offset="0.46875"/><stop stop-opacity="1" stop-color="rgb(55.744934%, 86.265564%, 69.326782%)" offset="0.472656"/><stop stop-opacity="1" stop-color="rgb(55.989075%, 86.291504%, 69.502258%)" offset="0.476562"/><stop stop-opacity="1" stop-color="rgb(56.231689%, 86.317444%, 69.676208%)" offset="0.480469"/><stop stop-opacity="1" stop-color="rgb(56.47583%, 86.34491%, 69.851685%)" offset="0.484375"/><stop stop-opacity="1" stop-color="rgb(56.718445%, 86.37085%, 70.025635%)" offset="0.488281"/><stop stop-opacity="1" stop-color="rgb(56.962585%, 86.39679%, 70.199585%)" offset="0.492188"/><stop stop-opacity="1" stop-color="rgb(57.2052%, 86.422729%, 70.373535%)" offset="0.496094"/><stop stop-opacity="1" stop-color="rgb(57.449341%, 86.448669%, 70.549011%)" offset="0.5"/><stop stop-opacity="1" stop-color="rgb(57.691956%, 86.474609%, 70.722961%)" offset="0.503906"/><stop stop-opacity="1" stop-color="rgb(57.936096%, 86.502075%, 70.898438%)" offset="0.507812"/><stop stop-opacity="1" stop-color="rgb(58.178711%, 86.528015%, 71.072388%)" offset="0.511719"/><stop stop-opacity="1" stop-color="rgb(58.422852%, 86.553955%, 71.247864%)" offset="0.515625"/><stop stop-opacity="1" stop-color="rgb(58.665466%, 86.579895%, 71.421814%)" offset="0.519531"/><stop stop-opacity="1" stop-color="rgb(58.909607%, 86.605835%, 71.59729%)" offset="0.523437"/><stop stop-opacity="1" stop-color="rgb(59.152222%, 86.631775%, 71.77124%)" offset="0.527344"/><stop stop-opacity="1" stop-color="rgb(59.396362%, 86.659241%, 71.946716%)" offset="0.53125"/><stop stop-opacity="1" stop-color="rgb(59.638977%, 86.685181%, 72.120667%)" offset="0.535156"/><stop stop-opacity="1" stop-color="rgb(59.883118%, 86.711121%, 72.296143%)" offset="0.539062"/><stop stop-opacity="1" stop-color="rgb(60.125732%, 86.737061%, 72.470093%)" offset="0.542969"/><stop stop-opacity="1" stop-color="rgb(60.369873%, 86.763%, 72.644043%)" offset="0.546875"/><stop stop-opacity="1" stop-color="rgb(60.612488%, 86.78894%, 72.817993%)" offset="0.550781"/><stop stop-opacity="1" stop-color="rgb(60.856628%, 86.816406%, 72.993469%)" offset="0.554688"/><stop stop-opacity="1" stop-color="rgb(61.099243%, 86.842346%, 73.167419%)" offset="0.558594"/><stop stop-opacity="1" stop-color="rgb(61.343384%, 86.868286%, 73.342896%)" offset="0.5625"/><stop stop-opacity="1" stop-color="rgb(61.585999%, 86.894226%, 73.516846%)" offset="0.566406"/><stop stop-opacity="1" stop-color="rgb(61.830139%, 86.920166%, 73.692322%)" offset="0.570312"/><stop stop-opacity="1" stop-color="rgb(62.072754%, 86.946106%, 73.866272%)" offset="0.574219"/><stop stop-opacity="1" stop-color="rgb(62.316895%, 86.972046%, 74.041748%)" offset="0.578125"/><stop stop-opacity="1" stop-color="rgb(62.559509%, 86.997986%, 74.215698%)" offset="0.582031"/><stop stop-opacity="1" stop-color="rgb(62.80365%, 87.025452%, 74.391174%)" offset="0.585938"/><stop stop-opacity="1" stop-color="rgb(63.046265%, 87.051392%, 74.565125%)" offset="0.589844"/><stop stop-opacity="1" stop-color="rgb(63.290405%, 87.077332%, 74.740601%)" offset="0.59375"/><stop stop-opacity="1" stop-color="rgb(63.53302%, 87.103271%, 74.914551%)" offset="0.597656"/><stop stop-opacity="1" stop-color="rgb(63.777161%, 87.129211%, 75.090027%)" offset="0.601562"/><stop stop-opacity="1" stop-color="rgb(64.019775%, 87.155151%, 75.263977%)" offset="0.605469"/><stop stop-opacity="1" stop-color="rgb(64.263916%, 87.182617%, 75.437927%)" offset="0.609375"/><stop stop-opacity="1" stop-color="rgb(64.506531%, 87.208557%, 75.611877%)" offset="0.613281"/><stop stop-opacity="1" stop-color="rgb(64.750671%, 87.234497%, 75.787354%)" offset="0.617187"/><stop stop-opacity="1" stop-color="rgb(64.993286%, 87.260437%, 75.961304%)" offset="0.621094"/><stop stop-opacity="1" stop-color="rgb(65.237427%, 87.286377%, 76.13678%)" offset="0.625"/><stop stop-opacity="1" stop-color="rgb(65.480042%, 87.312317%, 76.31073%)" offset="0.628906"/><stop stop-opacity="1" stop-color="rgb(65.724182%, 87.339783%, 76.486206%)" offset="0.632812"/><stop stop-opacity="1" stop-color="rgb(65.966797%, 87.365723%, 76.660156%)" offset="0.636719"/><stop stop-opacity="1" stop-color="rgb(66.210938%, 87.391663%, 76.835632%)" offset="0.640625"/><stop stop-opacity="1" stop-color="rgb(66.453552%, 87.417603%, 77.009583%)" offset="0.644531"/><stop stop-opacity="1" stop-color="rgb(66.697693%, 87.443542%, 77.185059%)" offset="0.648438"/><stop stop-opacity="1" stop-color="rgb(66.940308%, 87.469482%, 77.359009%)" offset="0.652344"/><stop stop-opacity="1" stop-color="rgb(67.184448%, 87.495422%, 77.534485%)" offset="0.65625"/><stop stop-opacity="1" stop-color="rgb(67.427063%, 87.521362%, 77.708435%)" offset="0.660156"/><stop stop-opacity="1" stop-color="rgb(67.671204%, 87.548828%, 77.882385%)" offset="0.664062"/><stop stop-opacity="1" stop-color="rgb(67.913818%, 87.574768%, 78.056335%)" offset="0.667969"/><stop stop-opacity="1" stop-color="rgb(68.157959%, 87.600708%, 78.231812%)" offset="0.671875"/><stop stop-opacity="1" stop-color="rgb(68.400574%, 87.626648%, 78.405762%)" offset="0.675781"/><stop stop-opacity="1" stop-color="rgb(68.644714%, 87.652588%, 78.581238%)" offset="0.679688"/><stop stop-opacity="1" stop-color="rgb(68.887329%, 87.678528%, 78.755188%)" offset="0.683594"/><stop stop-opacity="1" stop-color="rgb(69.13147%, 87.705994%, 78.930664%)" offset="0.6875"/><stop stop-opacity="1" stop-color="rgb(69.374084%, 87.731934%, 79.104614%)" offset="0.691406"/><stop stop-opacity="1" stop-color="rgb(69.618225%, 87.757874%, 79.28009%)" offset="0.695313"/><stop stop-opacity="1" stop-color="rgb(69.86084%, 87.783813%, 79.454041%)" offset="0.699219"/><stop stop-opacity="1" stop-color="rgb(70.10498%, 87.809753%, 79.629517%)" offset="0.703125"/><stop stop-opacity="1" stop-color="rgb(70.347595%, 87.835693%, 79.803467%)" offset="0.707031"/><stop stop-opacity="1" stop-color="rgb(70.591736%, 87.863159%, 79.978943%)" offset="0.710937"/><stop stop-opacity="1" stop-color="rgb(70.834351%, 87.889099%, 80.152893%)" offset="0.714844"/><stop stop-opacity="1" stop-color="rgb(71.076965%, 87.915039%, 80.328369%)" offset="0.71875"/><stop stop-opacity="1" stop-color="rgb(71.31958%, 87.940979%, 80.502319%)" offset="0.722656"/><stop stop-opacity="1" stop-color="rgb(71.563721%, 87.966919%, 80.67627%)" offset="0.726562"/><stop stop-opacity="1" stop-color="rgb(71.806335%, 87.992859%, 80.85022%)" offset="0.730469"/><stop stop-opacity="1" stop-color="rgb(72.050476%, 88.020325%, 81.025696%)" offset="0.734375"/><stop stop-opacity="1" stop-color="rgb(72.293091%, 88.046265%, 81.199646%)" offset="0.738281"/><stop stop-opacity="1" stop-color="rgb(72.537231%, 88.072205%, 81.375122%)" offset="0.742188"/><stop stop-opacity="1" stop-color="rgb(72.779846%, 88.098145%, 81.549072%)" offset="0.746094"/><stop stop-opacity="1" stop-color="rgb(73.023987%, 88.124084%, 81.724548%)" offset="0.75"/><stop stop-opacity="1" stop-color="rgb(73.266602%, 88.150024%, 81.898499%)" offset="0.753906"/><stop stop-opacity="1" stop-color="rgb(73.510742%, 88.175964%, 82.073975%)" offset="0.757812"/><stop stop-opacity="1" stop-color="rgb(73.753357%, 88.201904%, 82.247925%)" offset="0.761719"/><stop stop-opacity="1" stop-color="rgb(73.997498%, 88.22937%, 82.423401%)" offset="0.765625"/><stop stop-opacity="1" stop-color="rgb(74.240112%, 88.25531%, 82.597351%)" offset="0.769531"/><stop stop-opacity="1" stop-color="rgb(74.484253%, 88.28125%, 82.772827%)" offset="0.773438"/><stop stop-opacity="1" stop-color="rgb(74.726868%, 88.30719%, 82.946777%)" offset="0.777344"/><stop stop-opacity="1" stop-color="rgb(74.971008%, 88.33313%, 83.120728%)" offset="0.78125"/><stop stop-opacity="1" stop-color="rgb(75.213623%, 88.35907%, 83.294678%)" offset="0.785156"/><stop stop-opacity="1" stop-color="rgb(75.457764%, 88.386536%, 83.470154%)" offset="0.789063"/><stop stop-opacity="1" stop-color="rgb(75.700378%, 88.412476%, 83.644104%)" offset="0.792969"/><stop stop-opacity="1" stop-color="rgb(75.944519%, 88.438416%, 83.81958%)" offset="0.796875"/><stop stop-opacity="1" stop-color="rgb(76.187134%, 88.464355%, 83.99353%)" offset="0.800781"/><stop stop-opacity="1" stop-color="rgb(76.431274%, 88.490295%, 84.169006%)" offset="0.804687"/><stop stop-opacity="1" stop-color="rgb(76.673889%, 88.516235%, 84.342957%)" offset="0.808594"/><stop stop-opacity="1" stop-color="rgb(76.91803%, 88.543701%, 84.518433%)" offset="0.8125"/><stop stop-opacity="1" stop-color="rgb(77.160645%, 88.569641%, 84.692383%)" offset="0.816406"/><stop stop-opacity="1" stop-color="rgb(77.404785%, 88.595581%, 84.867859%)" offset="0.820312"/><stop stop-opacity="1" stop-color="rgb(77.6474%, 88.621521%, 85.041809%)" offset="0.824219"/><stop stop-opacity="1" stop-color="rgb(77.891541%, 88.647461%, 85.217285%)" offset="0.828125"/><stop stop-opacity="1" stop-color="rgb(78.134155%, 88.673401%, 85.391235%)" offset="0.832031"/><stop stop-opacity="1" stop-color="rgb(78.378296%, 88.699341%, 85.565186%)" offset="0.835938"/><stop stop-opacity="1" stop-color="rgb(78.620911%, 88.725281%, 85.739136%)" offset="0.839844"/><stop stop-opacity="1" stop-color="rgb(78.865051%, 88.752747%, 85.914612%)" offset="0.84375"/><stop stop-opacity="1" stop-color="rgb(79.107666%, 88.778687%, 86.088562%)" offset="0.847656"/><stop stop-opacity="1" stop-color="rgb(79.351807%, 88.804626%, 86.264038%)" offset="0.851562"/><stop stop-opacity="1" stop-color="rgb(79.594421%, 88.830566%, 86.437988%)" offset="0.855469"/><stop stop-opacity="1" stop-color="rgb(79.838562%, 88.856506%, 86.613464%)" offset="0.859375"/><stop stop-opacity="1" stop-color="rgb(80.081177%, 88.882446%, 86.787415%)" offset="0.863281"/><stop stop-opacity="1" stop-color="rgb(80.325317%, 88.909912%, 86.962891%)" offset="0.867188"/><stop stop-opacity="1" stop-color="rgb(80.567932%, 88.935852%, 87.136841%)" offset="0.871094"/><stop stop-opacity="1" stop-color="rgb(80.812073%, 88.961792%, 87.312317%)" offset="0.875"/><stop stop-opacity="1" stop-color="rgb(81.054688%, 88.987732%, 87.486267%)" offset="0.878906"/><stop stop-opacity="1" stop-color="rgb(81.298828%, 89.013672%, 87.661743%)" offset="0.882813"/><stop stop-opacity="1" stop-color="rgb(81.541443%, 89.039612%, 87.835693%)" offset="0.886719"/><stop stop-opacity="1" stop-color="rgb(81.785583%, 89.067078%, 88.011169%)" offset="0.890625"/><stop stop-opacity="1" stop-color="rgb(82.028198%, 89.093018%, 88.18512%)" offset="0.894531"/><stop stop-opacity="1" stop-color="rgb(82.272339%, 89.118958%, 88.35907%)" offset="0.898438"/><stop stop-opacity="1" stop-color="rgb(82.514954%, 89.144897%, 88.53302%)" offset="0.902344"/><stop stop-opacity="1" stop-color="rgb(82.759094%, 89.170837%, 88.708496%)" offset="0.90625"/><stop stop-opacity="1" stop-color="rgb(83.001709%, 89.196777%, 88.882446%)" offset="0.910156"/><stop stop-opacity="1" stop-color="rgb(83.24585%, 89.224243%, 89.057922%)" offset="0.914062"/><stop stop-opacity="1" stop-color="rgb(83.488464%, 89.250183%, 89.231873%)" offset="0.917969"/><stop stop-opacity="1" stop-color="rgb(83.732605%, 89.276123%, 89.407349%)" offset="0.921875"/><stop stop-opacity="1" stop-color="rgb(83.97522%, 89.302063%, 89.581299%)" offset="0.925781"/><stop stop-opacity="1" stop-color="rgb(84.21936%, 89.328003%, 89.756775%)" offset="0.929688"/><stop stop-opacity="1" stop-color="rgb(84.461975%, 89.353943%, 89.930725%)" offset="0.933594"/><stop stop-opacity="1" stop-color="rgb(84.706116%, 89.379883%, 90.106201%)" offset="0.9375"/><stop stop-opacity="1" stop-color="rgb(84.94873%, 89.405823%, 90.280151%)" offset="0.941406"/><stop stop-opacity="1" stop-color="rgb(85.192871%, 89.433289%, 90.455627%)" offset="0.945312"/><stop stop-opacity="1" stop-color="rgb(85.435486%, 89.459229%, 90.629578%)" offset="0.949219"/><stop stop-opacity="1" stop-color="rgb(85.679626%, 89.485168%, 90.803528%)" offset="0.953125"/><stop stop-opacity="1" stop-color="rgb(85.922241%, 89.511108%, 90.977478%)" offset="0.957031"/><stop stop-opacity="1" stop-color="rgb(86.166382%, 89.537048%, 91.152954%)" offset="0.960938"/><stop stop-opacity="1" stop-color="rgb(86.408997%, 89.562988%, 91.326904%)" offset="0.964844"/><stop stop-opacity="1" stop-color="rgb(86.653137%, 89.590454%, 91.50238%)" offset="0.96875"/><stop stop-opacity="1" stop-color="rgb(86.895752%, 89.616394%, 91.676331%)" offset="0.972656"/><stop stop-opacity="1" stop-color="rgb(87.139893%, 89.642334%, 91.851807%)" offset="0.976563"/><stop stop-opacity="1" stop-color="rgb(87.382507%, 89.668274%, 92.025757%)" offset="0.980469"/><stop stop-opacity="1" stop-color="rgb(87.626648%, 89.694214%, 92.201233%)" offset="0.984375"/><stop stop-opacity="1" stop-color="rgb(87.869263%, 89.720154%, 92.375183%)" offset="0.988281"/><stop stop-opacity="1" stop-color="rgb(88.113403%, 89.74762%, 92.550659%)" offset="0.992188"/><stop stop-opacity="1" stop-color="rgb(88.356018%, 89.77356%, 92.724609%)" offset="0.996094"/><stop stop-opacity="1" stop-color="rgb(88.598633%, 89.7995%, 92.89856%)" offset="1"/></linearGradient></defs><g clip-path="url(#6f000f64c8)"><g clip-path="url(#ae63c17d5d)"><path fill="url(#9d5d555ec4)" d="M 0 0 L 0 807.851562 L 807.851562 807.851562 L 807.851562 0 Z M 0 0 " fill-rule="nonzero"/></g></g><path fill="#f7dece" d="M 303.734375 310.066406 L 307.199219 309.769531 C 308.511719 309.621094 309.699219 309.152344 310.6875 308.457031 L 310.664062 308.484375 C 313.976562 319.914062 318.035156 331.941406 323.109375 344.535156 C 329.617188 361.011719 336.023438 374.546875 343.199219 387.609375 L 342.210938 385.632812 C 341.617188 394.636719 340.898438 403.890625 339.957031 412.847656 C 339.511719 418.367188 338.421875 423.511719 336.765625 428.363281 L 336.890625 427.914062 C 336.59375 428.039062 336.171875 479.378906 336.171875 479.378906 C 336.195312 512.855469 359.382812 540.890625 390.554688 548.339844 L 391.050781 548.4375 C 392.460938 544.851562 395.875 542.351562 399.882812 542.351562 L 414.085938 542.351562 C 418.070312 542.398438 421.484375 544.875 422.894531 548.363281 L 422.917969 548.4375 C 454.664062 540.964844 477.945312 512.933594 478.070312 479.429688 C 478.070312 479.429688 477.203125 428.289062 476.757812 427.941406 C 475.398438 423.609375 474.308594 418.515625 473.742188 413.269531 L 473.714844 412.898438 C 472.851562 403.890625 472.28125 394.859375 471.464844 385.679688 C 477.574219 374.644531 483.984375 361.136719 489.625 347.207031 L 490.566406 344.582031 C 495.636719 331.988281 499.570312 319.988281 503.011719 308.535156 C 503.976562 309.226562 505.164062 309.695312 506.449219 309.84375 L 506.476562 309.84375 L 509.964844 310.140625 C 514.171875 310.585938 517.882812 307.125 518.226562 301.753906 L 521.988281 253.976562 C 521.988281 253.949219 521.988281 253.925781 521.988281 253.925781 C 521.988281 249.894531 518.96875 246.578125 515.085938 246.082031 L 514.617188 246.082031 C 515.582031 239.128906 516.125 231.113281 516.125 222.972656 C 516.125 205.207031 513.503906 188.035156 508.628906 171.878906 L 508.949219 173.140625 C 494.671875 141.816406 466.367188 119.078125 432.273438 112.722656 L 431.628906 112.621094 C 424.304688 111.113281 415.769531 110.097656 407.058594 109.851562 L 406.539062 109.851562 C 397.65625 110.023438 389.121094 111.015625 380.859375 112.769531 L 381.75 112.621094 C 347.058594 119.152344 318.804688 141.890625 304.699219 172.472656 L 304.425781 173.140625 C 299.824219 187.988281 297.179688 205.058594 297.179688 222.726562 C 297.179688 230.964844 297.746094 239.082031 298.859375 247 L 298.761719 246.082031 C 294.828125 246.527344 291.785156 249.820312 291.785156 253.828125 L 291.785156 254 L 295.546875 301.777344 C 295.890625 307.273438 299.652344 310.585938 303.710938 310.140625 Z M 303.734375 310.066406 " fill-opacity="1" fill-rule="nonzero"/><path fill="#43d47b" d="M 672.085938 626.285156 C 670.359375 551.066406 662.835938 534.042969 658.773438 522.511719 C 657.167969 517.886719 655.855469 486.613281 604.195312 466.324219 C 572.523438 453.851562 531.648438 453.605469 497.058594 438.980469 L 497.058594 479.660156 C 496.984375 523.402344 465.660156 559.800781 424.21875 567.742188 L 423.648438 567.839844 C 422.882812 572.34375 419.023438 575.710938 414.394531 575.757812 L 413.949219 575.757812 L 413.949219 606.441406 C 413.949219 636.429688 438.246094 660.722656 468.234375 660.722656 C 498.222656 660.722656 522.519531 636.429688 522.519531 606.441406 L 522.519531 585.011719 C 507.476562 582.761719 496.070312 569.945312 496.070312 554.457031 C 496.070312 537.40625 509.902344 523.578125 526.949219 523.578125 C 543.996094 523.578125 557.828125 537.40625 557.828125 554.457031 C 557.828125 567.964844 549.144531 579.445312 537.070312 583.652344 L 536.847656 583.726562 L 536.847656 607.601562 C 536.847656 645.503906 506.117188 676.242188 468.210938 676.242188 C 430.304688 676.242188 399.574219 645.503906 399.574219 607.601562 C 399.574219 607.183594 399.574219 606.785156 399.574219 606.367188 L 399.574219 606.414062 L 399.574219 575.460938 C 395.171875 575.164062 391.605469 571.851562 390.914062 567.59375 L 390.914062 567.542969 C 349.101562 559.402344 317.921875 523.132812 317.824219 479.558594 L 317.824219 438.5625 C 283.085938 453.480469 241.964844 453.777344 210.121094 466.273438 C 158.308594 486.539062 157.121094 517.738281 155.539062 522.4375 C 151.578125 534.019531 143.957031 550.96875 142.226562 626.234375 C 141.929688 636.132812 142.226562 651.296875 172.066406 664.558594 C 237.039062 690.042969 320.746094 697.960938 403.261719 703.652344 L 411.179688 703.652344 C 493.867188 698.015625 577.449219 690.121094 642.371094 664.558594 C 672.085938 651.375 672.359375 636.28125 672.085938 626.285156 Z M 308.84375 595.601562 L 278.015625 595.601562 L 278.015625 626.554688 L 255.992188 626.554688 L 255.992188 595.703125 L 225.164062 595.703125 L 225.164062 573.679688 L 255.992188 573.679688 L 255.992188 542.851562 L 278.015625 542.851562 L 278.015625 573.679688 L 308.84375 573.679688 Z M 308.84375 595.601562 " fill-opacity="1" fill-rule="nonzero"/><path fill="#000000" d="M 543.648438 554.191406 C 543.648438 544.984375 536.199219 537.515625 526.996094 537.515625 C 517.789062 537.515625 510.34375 544.960938 510.34375 554.164062 C 510.34375 563.371094 517.789062 570.816406 526.996094 570.816406 C 536.175781 570.816406 543.621094 563.371094 543.648438 554.191406 Z M 543.648438 554.191406 " fill-opacity="1" fill-rule="nonzero"/></svg>